<svg id="vector" xmlns="http://www.w3.org/2000/svg" width="192" height="192" viewBox="0 0 960 960"><path fill="#000000" d="M270.84,763.39q-48.8,0 -83.64,-34.22 -34.85,-34.21 -35.98,-82.78h-78v-123.41q0,-66.87 45.96,-113.12t112.22,-46.25h158.03v216h157.61l146.44,-185v-136.87h-123v-66.22h123q27.01,0 46.61,19.45 19.61,19.45 19.61,46.77v160.06L578.3,646.39L389.43,646.39q-0.56,48.57 -35.29,82.78 -34.73,34.22 -83.3,34.22ZM323.22,579.61ZM270.61,696.61q20.74,0 35.82,-14.83 15.09,-14.82 16.22,-35.39L218.57,646.39q0.56,20.74 15.93,35.48 15.37,14.74 36.11,14.74ZM193.22,307v-66.22h196.21L389.43,307L193.22,307ZM767.69,763.39q-49.99,0 -84.56,-34.54 -34.56,-34.55 -34.56,-84.55t34.26,-84.84q34.26,-34.85 84.26,-34.85 50,0 84.85,34.54 34.84,34.55 34.84,84.55t-34.54,84.84q-34.55,34.85 -84.55,34.85ZM767.45,696.61q21.83,0 37.47,-15.54 15.65,-15.55 15.65,-37.13 0,-21.58 -15.71,-37.07 -15.7,-15.48 -37.52,-15.48 -21.82,0 -37.19,15.54 -15.37,15.55 -15.37,37.13 0,21.58 15.55,37.07 15.54,15.48 37.12,15.48ZM139.43,579.61h183.79v-149.22h-91.4q-38.52,0 -65.45,27.4 -26.94,27.4 -26.94,65.21v56.61Z" id="path_0"/></svg>