<svg id="vector" xmlns="http://www.w3.org/2000/svg" width="192" height="192" viewBox="0 0 960 960"><path fill="#000000" d="M856.39,443.26L856.39,780q0,32.51 -23.52,55.86 -23.52,23.36 -56.26,23.36L182.39,859.22q-32.51,0 -55.86,-23.36 -23.36,-23.35 -23.36,-55.86v-334.48q-29.13,-27.39 -36.43,-64.68 -7.31,-37.3 3.69,-72.8l43,-135q9.7,-31.52 33.09,-49.63Q169.91,105.3 201,105.3h553q32.4,0 57.42,18.61 25.02,18.61 34.15,49.13l44,135q11,35 2.63,71.7 -8.37,36.69 -35.81,63.52ZM570,404.91q26.44,0 45.18,-17.02 18.73,-17.02 14.73,-42.32l-24.43,-160.48h-90.39L515.09,345q0,24.42 15.51,42.17 15.52,17.74 39.4,17.74ZM382.74,404.91q25.47,0 43.82,-17.24 18.35,-17.25 18.35,-42.67v-159.91h-90.39l-24.43,160.48q-3.44,23.73 12.3,41.54 15.74,17.8 40.35,17.8ZM201.13,404.91q22.17,0 38.26,-15.65 16.09,-15.65 18.52,-37.39l25.44,-166.78h-90.39l-44.87,142.04q-9.44,29.99 6.87,53.89 16.3,23.89 46.17,23.89ZM758,404.91q29.74,0 46.54,-23.45 16.81,-23.46 7.37,-54.33l-44.87,-142.04h-89.82l24.87,166.78q2.43,21.74 18.46,37.39 16.03,15.65 37.45,15.65ZM182.39,780h594.22v-296.3q2.69,0.43 -4.52,0.43h-14.17q-22.09,0 -45.16,-9.37 -23.06,-9.37 -46.76,-29.67 -16.57,18.3 -40.7,28.67 -24.13,10.37 -52.15,10.37 -29.02,0 -50.8,-7.65 -21.78,-7.65 -42.35,-25.39 -15.98,16.27 -38.77,24.66 -22.8,8.38 -51.2,8.38 -29.9,0 -53.98,-9.88 -24.08,-9.89 -42.05,-29.16 -25.7,19.87 -49.83,29.45 -24.13,9.59 -43.17,9.59h-11.8q-5.37,0 -6.81,-0.43L182.39,780ZM776.61,780L182.39,780h594.22Z" id="path_0"/></svg>